<svg xmlns="http://www.w3.org/2000/svg" xmlns:xlink="http://www.w3.org/1999/xlink" width="1080" zoomAndPan="magnify" viewBox="0 0 810 809.999993" height="1080" preserveAspectRatio="xMidYMid meet" version="1.0"><defs><clipPath id="569bcdc4a2"><path d="M 234.4375 580.46875 L 663 580.46875 L 663 720.085938 L 234.4375 720.085938 Z M 234.4375 580.46875 " clip-rule="nonzero"/></clipPath><clipPath id="192140ae2f"><path d="M 240 90.113281 L 484 90.113281 L 484 358 L 240 358 Z M 240 90.113281 " clip-rule="nonzero"/></clipPath><clipPath id="5de1e4877f"><path d="M 240 90.113281 L 484 90.113281 L 484 358 L 240 358 Z M 240 90.113281 " clip-rule="nonzero"/></clipPath><clipPath id="eb1a04e754"><path d="M 466 90.113281 L 485 90.113281 L 485 238 L 466 238 Z M 466 90.113281 " clip-rule="nonzero"/></clipPath><clipPath id="51eda7877b"><path d="M 474 91 L 809.722656 91 L 809.722656 375 L 474 375 Z M 474 91 " clip-rule="nonzero"/></clipPath><clipPath id="eea48b07de"><path d="M 616 114 L 809.722656 114 L 809.722656 279 L 616 279 Z M 616 114 " clip-rule="nonzero"/></clipPath></defs><rect x="-81" width="972" fill="#ffffff" y="-80.999999" height="971.999992" fill-opacity="1"/><rect x="-81" width="972" fill="#ffffff" y="-80.999999" height="971.999992" fill-opacity="1"/><path fill="#f6f8db" d="M 728.269531 402.804688 C 754.910156 354.835938 790.871094 300.203125 764.234375 245.570312 C 754.910156 226.917969 741.589844 210.925781 724.273438 197.601562 C 653.507812 143.246094 605.101562 197.910156 495.523438 187.765625 C 385.949219 177.613281 245.355469 118.101562 143.523438 197.601562 C 118.21875 217.589844 102.234375 245.570312 92.910156 276.21875 C 80.921875 312.195312 78.257812 350.835938 102.234375 381.484375 C 115.554688 400.140625 132.867188 421.460938 124.875 442.777344 C 107.5625 482.753906 111.558594 532.054688 159.507812 546.714844 C 207.460938 562.703125 256.742188 550.710938 304.695312 553.375 C 377.957031 558.707031 448.550781 576.027344 521.808594 580.027344 C 592.40625 584.023438 678.984375 596.015625 728.269531 538.71875 C 753.578125 508.070312 726.9375 468.097656 722.941406 432.121094 C 721.609375 421.460938 722.941406 412.132812 728.269531 402.804688 " fill-opacity="1" fill-rule="nonzero"/><path fill="#f9fbed" d="M 251.417969 525.394531 C 214.121094 497.410156 111.558594 462.765625 123.546875 357.5 C 135.53125 252.234375 187.480469 198.933594 296.703125 189.605469 C 405.925781 180.277344 479.1875 253.566406 521.808594 240.242188 C 564.433594 226.917969 633.699219 198.933594 682.980469 242.90625 C 732.265625 286.878906 725.605469 338.84375 686.976562 385.480469 C 648.347656 432.121094 659.003906 457.4375 669.660156 477.425781 C 680.316406 497.410156 692.304688 526.726562 635.03125 524.0625 C 577.753906 521.394531 251.417969 525.394531 251.417969 525.394531 " fill-opacity="1" fill-rule="nonzero"/><path fill="#335731" d="M 412.734375 528.21875 L 406.46875 472.417969 L 518.03125 469.90625 L 516.15625 515.679688 L 412.734375 528.21875 " fill-opacity="1" fill-rule="nonzero"/><path fill="#264b27" d="M 492.492188 470.484375 C 494.929688 471.371094 496.503906 472.671875 496.503906 474.757812 C 495.359375 512.640625 445.773438 505.035156 410.769531 510.71875 L 412.734375 528.21875 L 516.15625 515.679688 L 518.03125 469.90625 L 492.492188 470.484375 " fill-opacity="1" fill-rule="nonzero"/><path fill="#49694a" d="M 438.785156 487.640625 C 459.070312 484.597656 477.8125 480 495.601562 472.6875 L 408.683594 474.640625 L 412.050781 504.609375 C 417.617188 494.851562 427.828125 488.640625 438.785156 487.640625 " fill-opacity="1" fill-rule="nonzero"/><path fill="#6681bb" d="M 524.925781 528.433594 C 524.925781 528.433594 541.847656 481.40625 543.730469 473.882812 C 543.730469 473.882812 645.269531 464.480469 650.28125 464.480469 L 627.089844 527.179688 L 524.925781 528.433594 " fill-opacity="1" fill-rule="nonzero"/><path fill="#efddc0" d="M 623.332031 453.398438 C 623.332031 453.398438 630.851562 467.613281 644.644531 468.449219 L 627.925781 521.953125 L 600.765625 513.59375 L 623.332031 453.398438 " fill-opacity="1" fill-rule="nonzero"/><path fill="#d8c6ab" d="M 619.046875 492.082031 C 614.140625 482.265625 622.785156 470.1875 627.308594 458.972656 C 624.691406 455.964844 623.332031 453.398438 623.332031 453.398438 L 600.765625 513.59375 L 627.925781 521.953125 L 637.390625 491.660156 C 630.03125 496.496094 621.871094 499.625 619.046875 492.082031 " fill-opacity="1" fill-rule="nonzero"/><path fill="#6681bb" d="M 500.691406 515.054688 C 500.691406 515.054688 517.617188 468.027344 519.496094 460.507812 C 519.496094 460.507812 623.355469 448.109375 628.371094 448.109375 L 602.859375 513.800781 L 500.691406 515.054688 " fill-opacity="1" fill-rule="nonzero"/><path fill="#8298c6" d="M 624.875 451.714844 C 606.199219 453.527344 521.335938 463.839844 521.335938 463.839844 C 520.5 467.257812 516.597656 478.859375 512.597656 490.488281 C 540.285156 464.207031 584.847656 461.886719 621.765625 452.773438 C 622.800781 452.425781 623.84375 452.070312 624.875 451.714844 " fill-opacity="1" fill-rule="nonzero"/><path fill="#52322a" d="M 260.429688 525.085938 L 250.402344 480.566406 C 250.402344 480.566406 361.964844 461.761719 380.769531 461.761719 L 393.304688 518.191406 L 260.429688 525.085938 " fill-opacity="1" fill-rule="nonzero"/><path fill="#46241c" d="M 357.976562 494.746094 C 355.738281 476.847656 365.71875 464.582031 380.800781 461.902344 L 380.769531 461.761719 C 361.964844 461.761719 250.402344 480.566406 250.402344 480.566406 L 251.386719 484.933594 C 287.582031 479.5625 322.78125 483.820312 357.976562 494.746094 " fill-opacity="1" fill-rule="nonzero"/><path fill="#e29330" d="M 237.238281 514.425781 C 237.238281 514.425781 154.421875 543.273438 138.125 545.78125 C 138.125 545.78125 158.183594 555.1875 168.214844 562.707031 C 170.277344 564.257812 226.285156 545.78125 227.835938 545.78125 C 232.851562 545.78125 237.238281 514.425781 237.238281 514.425781 " fill-opacity="1" fill-rule="nonzero"/><path fill="#cc7f20" d="M 149.933594 551.699219 C 156.09375 554.953125 163.339844 559.050781 168.214844 562.707031 C 170.277344 564.257812 226.285156 545.78125 227.835938 545.78125 C 231.191406 545.78125 234.265625 531.722656 235.9375 522.433594 C 207.503906 532.71875 178.410156 542.261719 149.933594 551.699219 " fill-opacity="1" fill-rule="nonzero"/><path fill="#e29330" d="M 644.644531 495.617188 L 734.261719 536.71875 C 734.261719 536.71875 689.695312 542.488281 679.03125 550.011719 L 627.089844 516.3125 L 644.644531 495.617188 " fill-opacity="1" fill-rule="nonzero"/><path fill="#cc7f20" d="M 638.167969 503.25 L 627.089844 516.3125 L 679.03125 550.011719 C 684.398438 546.230469 698.332031 542.886719 710.863281 540.503906 C 698.804688 534.472656 650.835938 507.320312 638.167969 503.25 " fill-opacity="1" fill-rule="nonzero"/><g clip-path="url(#569bcdc4a2)"><path fill="#d78927" d="M 234.730469 590.925781 C 234.730469 590.925781 260.660156 683.335938 259.40625 715.9375 C 259.40625 715.9375 593.738281 719.9375 627.089844 720.085938 C 627.089844 720.085938 645.894531 614.75 662.191406 580.890625 C 662.191406 580.890625 259.796875 580.890625 234.730469 590.925781 " fill-opacity="1" fill-rule="nonzero"/><path fill="#c17520" d="M 662.191406 580.890625 C 662.191406 580.890625 259.796875 580.890625 234.730469 590.925781 C 234.730469 590.925781 260.660156 683.335938 259.40625 715.9375 C 259.40625 715.9375 274.660156 716.121094 298.960938 716.414062 C 289.363281 712.066406 279.839844 707.214844 270.0625 702.613281 C 270.0625 701.28125 267.398438 699.949219 268.730469 697.285156 C 276.722656 685.292969 300.699219 681.292969 295.371094 670.632812 C 287.378906 655.976562 255.410156 647.980469 259.40625 630.660156 C 260.738281 625.328125 276.722656 621.332031 287.378906 620 C 403.261719 600.011719 515.152344 605.34375 627.039062 625.328125 C 607.058594 626.664062 589.742188 635.988281 569.761719 639.988281 C 588.410156 639.988281 607.058594 645.316406 619.046875 658.640625 C 625.707031 666.636719 604.394531 667.96875 605.726562 678.628906 C 619.046875 674.632812 621.710938 690.621094 619.046875 699.949219 C 616.492188 708.46875 609.585938 713.726562 603.894531 719.882812 C 615.097656 720 623.171875 720.066406 627.089844 720.085938 C 627.089844 720.085938 645.894531 614.75 662.191406 580.890625 " fill-opacity="1" fill-rule="nonzero"/></g><path fill="#e29330" d="M 179.578125 610.984375 C 179.578125 610.984375 225.957031 545.78125 237.238281 514.425781 C 237.238281 514.425781 579.457031 510.664062 644.644531 495.617188 C 644.644531 495.617188 686.007812 582.144531 699.796875 594.683594 C 699.796875 594.683594 288.632812 595.9375 179.578125 610.984375 " fill-opacity="1" fill-rule="nonzero"/><path fill="#e9a353" d="M 313.253906 534.722656 C 406.742188 526.726562 498.917969 521.394531 592.402344 518.730469 C 601.621094 518.730469 612.152344 521.394531 618.738281 525.394531 C 635.960938 535.726562 652.257812 546.046875 668.671875 555.613281 C 654.714844 529.097656 641.410156 500.945312 641.410156 500.945312 C 576.96875 515.992188 238.667969 519.757812 238.667969 519.757812 C 233.496094 534.300781 220.859375 556.125 208.792969 575.347656 C 216.824219 569.59375 224.984375 563.8125 232.933594 557.375 C 255.320312 540.050781 285.605469 536.054688 313.253906 534.722656 " fill-opacity="1" fill-rule="nonzero"/><path fill="#f5ba8a" d="M 1.5625 383.9375 C 1.5625 383.9375 126.296875 352.660156 131.9375 348.273438 C 137.578125 343.882812 162.027344 319.429688 172.679688 311.902344 C 183.332031 304.382812 235.984375 299.363281 235.984375 299.363281 L 212.792969 397.179688 C 212.792969 397.179688 200.882812 400.941406 185.21875 402.195312 C 169.546875 403.449219 150.117188 400.941406 144.476562 402.195312 C 138.832031 403.449219 4.699219 451.648438 4.699219 451.648438 C 4.699219 451.648438 0.316406 403.996094 1.5625 383.9375 " fill-opacity="1" fill-rule="nonzero"/><path fill="#efae7f" d="M 206.597656 303.078125 C 210.203125 324.933594 198.148438 346.640625 182.152344 361.496094 C 187.480469 360.164062 193.472656 361.832031 196.136719 364.496094 C 204.128906 372.492188 202.132812 382.816406 191.476562 388.148438 C 175.492188 397.476562 150.183594 401.472656 139.527344 381.484375 C 139.527344 385.480469 140.859375 392.144531 138.195312 392.144531 C 123.546875 389.480469 124.875 370.824219 118.21875 360.164062 C 118.21875 370.824219 124.875 386.816406 119.550781 390.8125 C 84.429688 416.648438 42.890625 421.652344 3.027344 430.671875 C 3.863281 442.570312 4.699219 451.648438 4.699219 451.648438 C 4.699219 451.648438 138.832031 403.449219 144.476562 402.195312 C 150.117188 400.941406 169.546875 403.449219 185.21875 402.195312 C 200.882812 400.941406 212.792969 397.179688 212.792969 397.179688 L 235.984375 299.363281 C 235.984375 299.363281 221.757812 300.71875 206.597656 303.078125 " fill-opacity="1" fill-rule="nonzero"/><path fill="#e16924" d="M 120.480469 347.667969 C 117.058594 348.566406 113.179688 349.515625 109.074219 350.46875 C 109.085938 372.589844 113.171875 395.089844 120.84375 415.628906 C 124.050781 414.378906 127.128906 413.1875 129.988281 412.089844 C 123.546875 391.390625 122.066406 369.398438 120.480469 347.667969 " fill-opacity="1" fill-rule="nonzero"/><path fill="#d8dade" d="M 123.0625 372.3125 C 118.699219 373.097656 114.417969 374.125 110.171875 375.160156 C 110.941406 380.765625 111.941406 386.347656 113.171875 391.859375 C 117.394531 391.742188 121.453125 390.9375 125.355469 389.699219 C 124.417969 383.941406 123.675781 378.136719 123.0625 372.3125 " fill-opacity="1" fill-rule="nonzero"/><path fill="#f8f9fa" d="M 114.648438 376.9375 C 117.898438 376.125 121.140625 378.210938 123.15625 381.542969 C 122.804688 378.917969 122.488281 376.285156 122.214844 373.644531 C 118.480469 374.316406 114.820312 375.195312 111.183594 376.082031 C 111.332031 377.191406 111.5 378.300781 111.671875 379.40625 C 112.53125 378.277344 113.976562 377.601562 114.648438 376.9375 " fill-opacity="1" fill-rule="nonzero"/><path fill="#f3b713" d="M 187.71875 447.339844 L 241 218.480469 L 399.574219 256.726562 L 354.449219 486.210938 C 354.449219 486.210938 194.621094 452.980469 187.71875 447.339844 " fill-opacity="1" fill-rule="nonzero"/><path fill="#e1a21f" d="M 268.730469 273.554688 C 256.046875 286.25 239.78125 291.78125 223.089844 295.410156 L 214.269531 333.292969 C 243.414062 324.96875 269.75 308.261719 268.730469 273.554688 " fill-opacity="1" fill-rule="nonzero"/><path fill="#e1a21f" d="M 359.484375 247.058594 C 353.371094 258.777344 352.222656 272.042969 363.304688 281.546875 C 351.316406 292.207031 326.007812 293.539062 324.675781 305.53125 C 320.945312 346.609375 349.75 381.875 367.679688 418.925781 L 399.574219 256.726562 L 359.484375 247.058594 " fill-opacity="1" fill-rule="nonzero"/><path fill="#f1911e" d="M 370.140625 266.121094 L 264.269531 240.585938 C 260.085938 246.285156 252.390625 251.011719 245.144531 249.648438 L 205.628906 419.417969 C 210.847656 420.777344 215.351562 424.921875 217.179688 430.40625 C 217.738281 433.195312 217.785156 436.238281 217.570312 439.300781 C 244.710938 446.367188 300.347656 458.320312 328.707031 464.324219 C 330.550781 458.664062 333.902344 453.679688 338.777344 451.726562 C 342.277344 451.027344 345.78125 452.285156 348.84375 454.40625 L 382.253906 284.503906 C 375.386719 281.199219 370.769531 273.699219 370.140625 266.121094 " fill-opacity="1" fill-rule="nonzero"/><path fill="#df7c23" d="M 268.730469 273.554688 C 259.148438 283.140625 247.523438 288.644531 235.214844 292.328125 L 226.644531 329.144531 C 250.449219 319.777344 269.605469 303.246094 268.730469 273.554688 " fill-opacity="1" fill-rule="nonzero"/><path fill="#df7c23" d="M 370.140625 266.121094 L 354.941406 262.449219 C 354.613281 269.390625 356.941406 276.09375 363.304688 281.546875 C 351.316406 292.207031 326.007812 293.539062 324.675781 305.53125 C 321.5 340.480469 341.871094 371.214844 359.0625 402.425781 L 382.253906 284.503906 C 375.386719 281.199219 370.769531 273.699219 370.140625 266.121094 " fill-opacity="1" fill-rule="nonzero"/><path fill="#f5ba8a" d="M 190.546875 367.082031 C 190.546875 367.082031 201.511719 358.617188 207.152344 341.0625 C 212.792969 323.507812 215.613281 317.546875 216.867188 316.609375 C 218.121094 315.667969 246.554688 303.003906 255.410156 295.289062 C 265.070312 286.878906 267.632812 272.089844 265.445312 270.207031 C 263.246094 268.328125 254.789062 276.167969 242.253906 279.925781 C 229.714844 283.6875 218.746094 284.941406 214.671875 286.824219 C 210.597656 288.707031 179.257812 307.203125 173.621094 311.28125 C 167.980469 315.355469 159.519531 323.816406 163.90625 339.808594 C 168.292969 355.796875 179.257812 368.019531 190.546875 367.082031 " fill-opacity="1" fill-rule="nonzero"/><path fill="#efae7f" d="M 213.640625 307.660156 C 213.726562 304.054688 209.277344 303.652344 208.640625 300.558594 C 212.84375 313.527344 208.164062 326.78125 204.359375 339.3125 C 204.472656 339 204.597656 338.710938 204.707031 338.390625 C 210.691406 321.304688 213.609375 315.527344 214.875 314.632812 C 216.132812 313.742188 244.53125 301.984375 253.464844 294.625 C 261.652344 287.882812 264.984375 276.609375 264.585938 272.054688 C 256.386719 292.105469 236.050781 305.726562 213.640625 307.660156 " fill-opacity="1" fill-rule="nonzero"/><path fill="#ce4925" d="M 261.472656 367.289062 L 332.511719 382.339844 C 332.511719 382.339844 353.402344 278.675781 315.378906 270.316406 C 277.355469 261.957031 261.472656 367.289062 261.472656 367.289062 " fill-opacity="1" fill-rule="nonzero"/><path fill="#984a23" d="M 324.988281 320.054688 C 308.882812 313.007812 288.753906 311.628906 273.003906 319.140625 C 271.152344 324.792969 269.539062 330.433594 268.148438 335.769531 C 291.601562 325.984375 318.546875 334.203125 336.871094 351.664062 C 337.546875 344.707031 338.074219 337.082031 338.203125 329.371094 C 334.421875 325.441406 329.945312 322.261719 324.988281 320.054688 " fill-opacity="1" fill-rule="nonzero"/><path fill="#f3b713" d="M 314.125 402.820312 C 314.128906 402.636719 303.738281 401.382812 291.074219 399.058594 C 278.425781 396.59375 268.207031 394.308594 268.160156 394.460938 C 268.140625 394.519531 278.101562 397.871094 290.828125 400.347656 C 303.585938 402.695312 314.140625 402.851562 314.125 402.820312 " fill-opacity="1" fill-rule="nonzero"/><path fill="#f3b713" d="M 302.84375 420.375 C 302.871094 420.195312 295.445312 419.332031 286.417969 418.371094 C 277.285156 417.546875 270.703125 414.125 270.667969 414.109375 C 270.449219 414.246094 276.886719 418.824219 286.25 419.679688 C 295.414062 420.652344 302.828125 420.398438 302.84375 420.375 " fill-opacity="1" fill-rule="nonzero"/><path fill="#d66541" d="M 317.046875 353.914062 C 317.089844 354.050781 310.554688 347.914062 300.035156 345.710938 C 289.539062 343.632812 281.054688 346.085938 281.109375 345.972656 C 281.101562 346.214844 289.628906 344.527344 299.855469 346.574219 C 310.097656 348.691406 316.96875 354.128906 317.046875 353.914062 " fill-opacity="1" fill-rule="nonzero"/><path fill="#1b7bae" d="M 370.53125 284.109375 C 354.234375 290.375 332.089844 298.320312 330.417969 303.753906 C 328.75 309.1875 337.105469 333.847656 360.089844 374.394531 C 383.070312 414.941406 394.351562 437.101562 396.019531 438.351562 C 397.691406 439.605469 543.417969 388.085938 555.953125 382.753906 C 556.695312 382.4375 558.683594 376.664062 557.550781 373.765625 C 548.367188 350.230469 499.472656 265.449219 494.632812 259.863281 C 489.203125 253.59375 483.347656 252.335938 474.160156 254.429688 C 464.964844 256.515625 398.527344 274.496094 385.992188 277.421875 C 373.460938 280.347656 370.53125 284.109375 370.53125 284.109375 " fill-opacity="1" fill-rule="nonzero"/><path fill="#226492" d="M 356.414062 298.292969 C 370.769531 293.625 384.167969 284.09375 396.601562 290.875 C 421.910156 305.53125 423.242188 338.84375 441.890625 361.496094 C 447.21875 368.160156 455.210938 364.164062 455.210938 354.835938 C 460.539062 364.164062 468.53125 357.5 471.195312 349.503906 C 472.527344 348.171875 476.523438 352.171875 477.855469 350.835938 C 492.507812 321.523438 476.523438 292.207031 476.523438 262.894531 C 476.523438 258.222656 483.796875 258.097656 490.902344 256.414062 C 486.425781 253.210938 481.304688 252.804688 474.160156 254.429688 C 464.964844 256.515625 398.527344 274.496094 385.992188 277.421875 C 373.460938 280.347656 370.53125 284.109375 370.53125 284.109375 C 358.730469 288.648438 343.863281 294.066406 335.925781 298.777344 C 342.765625 295.746094 350.046875 294.6875 356.414062 298.292969 " fill-opacity="1" fill-rule="nonzero"/><g clip-path="url(#192140ae2f)"><path fill="#f4ca9d" d="M 240.449219 90.648438 C 240.449219 90.648438 295.527344 148.882812 326.242188 180.863281 C 356.949219 212.835938 368.230469 236.664062 368.859375 241.679688 C 369.488281 246.695312 365.9375 262.789062 366.351562 268.640625 C 366.769531 274.496094 370.53125 284.109375 370.53125 284.109375 C 370.53125 284.109375 380.144531 279.925781 385.992188 278.675781 C 391.84375 277.421875 400.199219 278.253906 407.722656 287.449219 C 415.242188 296.648438 423.179688 312.113281 427.773438 322.5625 C 432.375 333.015625 443.238281 356.84375 451.179688 357.261719 C 459.117188 357.675781 446.585938 319.222656 446.585938 319.222656 C 446.585938 319.222656 451.179688 332.175781 456.609375 341.792969 C 462.042969 351.40625 467.058594 353.914062 470.398438 350.570312 C 473.738281 347.226562 462.457031 313.789062 462.457031 313.789062 C 462.457031 313.789062 467.890625 323.398438 471.652344 332.59375 C 475.414062 341.792969 480.007812 342.628906 481.679688 339.703125 C 483.347656 336.777344 480.839844 326.117188 480.839844 326.117188 C 480.839844 326.117188 483.644531 324.453125 483.347656 319.847656 C 482.726562 310.023438 479.171875 276.582031 474.160156 267.808594 C 469.144531 259.027344 435.714844 235.203125 421.925781 222.242188 C 408.136719 209.285156 338.433594 95.246094 338.433594 95.246094 L 240.449219 90.648438 " fill-opacity="1" fill-rule="nonzero"/></g><path fill="#f3d1a2" d="M 349.984375 160.292969 C 363.304688 176.28125 373.960938 192.273438 385.949219 209.59375 C 397.933594 226.917969 388.609375 249.570312 403.261719 261.5625 C 408.589844 266.890625 417.914062 270.886719 425.90625 272.222656 C 436.5625 273.554688 445.886719 268.222656 456.542969 273.554688 C 456.542969 270.886719 456.542969 269.554688 457.875 268.222656 C 461.570312 267.488281 465.257812 266.746094 468.5 265.324219 C 458.660156 254.738281 431.378906 234.964844 419.261719 223.574219 C 405.472656 210.621094 335.769531 96.578125 335.769531 96.578125 L 291.855469 94.515625 C 305.722656 108.789062 319.984375 122.128906 331.335938 140.304688 C 335.332031 148.300781 344.65625 153.628906 349.984375 160.292969 " fill-opacity="1" fill-rule="nonzero"/><g clip-path="url(#5de1e4877f)"><path fill="#ecbe92" d="M 483.347656 319.847656 C 482.902344 312.835938 480.964844 293.800781 478.074219 280.285156 C 478.203125 285.5 478.011719 290.761719 476.523438 296.207031 C 472.527344 290.875 472.527344 282.878906 468.53125 277.550781 C 468.53125 285.546875 471.195312 297.539062 467.199219 301.535156 C 457.875 308.199219 456.542969 288.210938 452.546875 280.214844 C 455.210938 290.875 457.875 301.535156 455.210938 313.527344 C 443.222656 309.53125 436.5625 293.539062 432.566406 281.546875 C 433.898438 290.875 439.226562 300.203125 437.894531 309.53125 C 413.917969 297.539062 407.257812 269.554688 377.957031 261.5625 C 367.300781 257.5625 380.621094 233.578125 371.296875 217.589844 C 353.980469 192.273438 335.332031 173.617188 315.351562 152.296875 C 310.023438 148.300781 308.691406 141.636719 303.363281 136.308594 C 285.289062 120.636719 267.21875 108.222656 252.101562 91.195312 L 240.449219 90.648438 C 240.449219 90.648438 295.527344 148.882812 326.242188 180.863281 C 356.949219 212.835938 368.230469 236.664062 368.859375 241.679688 C 369.488281 246.695312 365.9375 262.789062 366.351562 268.640625 C 366.769531 274.496094 370.53125 284.109375 370.53125 284.109375 C 370.53125 284.109375 380.144531 279.925781 385.992188 278.675781 C 391.84375 277.421875 400.199219 278.253906 407.722656 287.449219 C 415.242188 296.648438 423.179688 312.113281 427.773438 322.5625 C 432.375 333.015625 443.238281 356.84375 451.179688 357.261719 C 459.117188 357.675781 446.585938 319.222656 446.585938 319.222656 C 446.585938 319.222656 451.179688 332.175781 456.609375 341.792969 C 462.042969 351.40625 467.058594 353.914062 470.398438 350.570312 C 473.738281 347.226562 462.457031 313.789062 462.457031 313.789062 C 462.457031 313.789062 467.890625 323.398438 471.652344 332.59375 C 475.414062 341.792969 480.007812 342.628906 481.679688 339.703125 C 483.347656 336.777344 480.839844 326.117188 480.839844 326.117188 C 480.839844 326.117188 483.644531 324.453125 483.347656 319.847656 " fill-opacity="1" fill-rule="nonzero"/></g><path fill="#cb9d72" d="M 446.585938 319.222656 C 446.609375 319.222656 444.347656 310.351562 439.738281 300.058594 C 434.980469 289.902344 431.800781 281.375 431.75 281.390625 C 431.65625 281.40625 434.160156 290.21875 438.9375 300.421875 C 443.515625 310.628906 446.480469 319.257812 446.585938 319.222656 " fill-opacity="1" fill-rule="nonzero"/><path fill="#cb9d72" d="M 462.457031 313.789062 C 462.527344 313.761719 460.003906 306.046875 457.144531 296.476562 C 454.296875 286.925781 453.128906 278.867188 453.0625 278.882812 C 452.984375 278.871094 453.425781 287.070312 456.304688 296.730469 C 459.175781 306.339844 462.394531 313.8125 462.457031 313.789062 " fill-opacity="1" fill-rule="nonzero"/><path fill="#cb9d72" d="M 480.839844 326.117188 C 480.894531 326.109375 478.902344 314.992188 475.621094 301.453125 C 471.980469 288.011719 469.585938 277.007812 469.5625 277.003906 C 469.4375 277.007812 471.128906 288.226562 474.769531 301.660156 C 478.042969 315.179688 480.753906 326.140625 480.839844 326.117188 " fill-opacity="1" fill-rule="nonzero"/><path fill="#ffffff" d="M 399.886719 434.171875 C 399.886719 434.171875 339.089844 319.742188 335.328125 310.648438 C 331.570312 301.5625 343.164062 294.035156 352.5625 303.128906 C 361.964844 312.214844 413.152344 416.195312 413.152344 416.195312 L 555.640625 369.902344 C 555.640625 369.902344 556.265625 380.25 553.132812 381.1875 C 550 382.128906 399.886719 434.171875 399.886719 434.171875 " fill-opacity="1" fill-rule="nonzero"/><path fill="#d8dade" d="M 555.640625 369.902344 L 413.152344 416.195312 C 413.152344 416.195312 361.964844 312.214844 352.5625 303.128906 C 343.164062 294.035156 331.570312 301.5625 335.328125 310.648438 C 335.652344 311.441406 336.425781 313.050781 337.539062 315.289062 C 341.304688 312.542969 346.210938 312.128906 348.652344 316.191406 C 371.296875 348.171875 391.273438 377.488281 403.261719 413.464844 C 405.527344 420.257812 402.980469 427.054688 399.714844 433.847656 C 399.824219 434.0625 399.886719 434.171875 399.886719 434.171875 C 399.886719 434.171875 400.941406 433.804688 402.835938 433.148438 C 408.191406 413.867188 435.3125 415.699219 451.214844 410.800781 C 451.214844 412.492188 451.214844 414.421875 451.214844 416.382812 C 495.007812 401.21875 551.230469 381.761719 553.132812 381.1875 C 556.265625 380.25 555.640625 369.902344 555.640625 369.902344 " fill-opacity="1" fill-rule="nonzero"/><path fill="#459ac6" d="M 413.917969 410.355469 C 414.066406 410.285156 401.710938 383.539062 385.238281 351.171875 C 376.910156 335.0625 369.644531 320.253906 362.808594 310.375 C 356.527344 300.027344 348.71875 296.542969 348.652344 298.429688 C 348.890625 296.835938 355.890625 300.59375 361.714844 311.09375 C 368 321.105469 374.816406 336.101562 383.164062 352.234375 C 399.632812 384.59375 413.730469 410.449219 413.917969 410.355469 " fill-opacity="1" fill-rule="nonzero"/><path fill="#459ac6" d="M 482.742188 388.148438 C 482.6875 387.992188 467.464844 392.015625 449.070312 398.144531 C 430.679688 404.28125 416.089844 410.199219 416.140625 410.355469 C 416.214844 410.570312 431.417969 406.488281 449.808594 400.359375 C 468.199219 394.226562 482.808594 388.34375 482.742188 388.148438 " fill-opacity="1" fill-rule="nonzero"/><path fill="#babe8e" d="M 32.90625 264.042969 L 146.5625 314.203125 L 154.085938 299.15625 Z M 32.90625 264.042969 " fill-opacity="1" fill-rule="nonzero"/><path fill="#babe8e" d="M 87.117188 563.160156 L 187.039062 482.753906 L 168.5625 466.773438 Z M 87.117188 563.160156 " fill-opacity="1" fill-rule="nonzero"/><path fill="#babe8e" d="M 71.71875 491.472656 L 149.648438 447.269531 L 144.179688 436.441406 Z M 71.71875 491.472656 " fill-opacity="1" fill-rule="nonzero"/><path fill="#babe8e" d="M 759.605469 551.324219 L 665.835938 469.8125 L 663 449.441406 Z M 759.605469 551.324219 " fill-opacity="1" fill-rule="nonzero"/><path fill="#babe8e" d="M 753.757812 472.441406 L 656.972656 423.152344 L 662.222656 412.214844 Z M 753.757812 472.441406 " fill-opacity="1" fill-rule="nonzero"/><path fill="#babe8e" d="M 62.160156 213.042969 L 169.585938 289.570312 L 179.359375 275.875 Z M 62.160156 213.042969 " fill-opacity="1" fill-rule="nonzero"/><path fill="#babe8e" d="M 95.328125 151.335938 L 186.898438 246.273438 L 199.015625 234.605469 Z M 95.328125 151.335938 " fill-opacity="1" fill-rule="nonzero"/><path fill="#babe8e" d="M 762.472656 384.007812 L 667.207031 386.519531 L 676.929688 368.429688 Z M 762.472656 384.007812 " fill-opacity="1" fill-rule="nonzero"/><path fill="#babe8e" d="M 777.6875 320.457031 L 692.171875 325.660156 L 693.210938 313.539062 Z M 777.6875 320.457031 " fill-opacity="1" fill-rule="nonzero"/><path fill="#babe8e" d="M 770.617188 211.457031 L 690.699219 265.40625 L 686.003906 254.316406 Z M 770.617188 211.457031 " fill-opacity="1" fill-rule="nonzero"/><path fill="#babe8e" d="M 178.324219 150.34375 L 225.34375 214.503906 L 237.460938 202.835938 Z M 178.324219 150.34375 " fill-opacity="1" fill-rule="nonzero"/><path fill="#babe8e" d="M 414.824219 94.332031 L 420.957031 211.175781 L 438.222656 219.734375 Z M 414.824219 94.332031 " fill-opacity="1" fill-rule="nonzero"/><path fill="#babe8e" d="M 523.464844 104.363281 L 531.828125 223.917969 L 513.539062 230.070312 Z M 523.464844 104.363281 " fill-opacity="1" fill-rule="nonzero"/><path fill="#babe8e" d="M 581.132812 105.203125 L 574.71875 208.546875 L 558.664062 219.203125 Z M 581.132812 105.203125 " fill-opacity="1" fill-rule="nonzero"/><g clip-path="url(#eb1a04e754)"><path fill="#babe8e" d="M 471.195312 90.117188 L 466.636719 232.277344 L 484.1875 237.289062 Z M 471.195312 90.117188 " fill-opacity="1" fill-rule="nonzero"/></g><path fill="#babe8e" d="M 193.25 98.996094 L 280.496094 207.8125 L 302.84375 205.523438 Z M 193.25 98.996094 " fill-opacity="1" fill-rule="nonzero"/><path fill="#f6ddc7" d="M 138.863281 346.507812 C 138.863281 346.507812 166.835938 316.859375 174.492188 311.863281 C 182.152344 306.867188 208.125 290.210938 213.789062 288.210938 C 219.449219 286.210938 237.097656 282.214844 244.421875 280.214844 C 251.75 278.21875 262.40625 272.554688 262.40625 272.554688 C 262.40625 272.554688 251.082031 282.546875 241.09375 284.214844 C 231.101562 285.878906 216.785156 289.210938 213.121094 290.875 C 209.457031 292.542969 179.820312 313.195312 176.160156 315.195312 C 172.496094 317.191406 138.863281 346.507812 138.863281 346.507812 " fill-opacity="1" fill-rule="nonzero"/><path fill="#cb8f5f" d="M 176.824219 365.941406 C 176.082031 366.066406 194.050781 366.089844 204.152344 348.996094 C 213.90625 332.96875 214.039062 317.324219 214.121094 317.527344 C 213.820312 317.332031 212.476562 332.703125 202.976562 348.246094 C 193.375 364.703125 176.292969 365.796875 176.824219 365.941406 " fill-opacity="1" fill-rule="nonzero"/><path fill="#ffffff" d="M 568.589844 331.339844 C 574.023438 330.089844 582.800781 327.164062 580.292969 312.113281 C 577.785156 297.0625 569.851562 282.855469 552.714844 282.015625 C 535.582031 281.179688 518.03125 286.195312 515.941406 295.808594 C 513.855469 305.429688 500.066406 343.046875 499.230469 344.300781 C 498.390625 345.554688 503.824219 347.226562 516.363281 340.535156 C 528.898438 333.847656 568.589844 331.339844 568.589844 331.339844 " fill-opacity="1" fill-rule="nonzero"/><path stroke-linecap="butt" transform="matrix(0.133199, 0, 0, -0.133249, 1.339933, 720.085832)" fill="none" stroke-linejoin="miter" d="M 4258.659653 2917.446048 C 4299.452654 2926.827 4365.349041 2948.784292 4346.521502 3061.73682 C 4327.693963 3174.689349 4268.132075 3281.309734 4139.50655 3287.612562 C 4010.851699 3293.886073 3879.088252 3256.245002 3863.398636 3184.099616 C 3847.738346 3111.895599 3744.216207 2829.587567 3737.940361 2820.177299 C 3731.635188 2810.767031 3772.42819 2798.220008 3866.565885 2848.437418 C 3960.674255 2898.625513 4258.659653 2917.446048 4258.659653 2917.446048 Z M 4258.659653 2917.446048 " stroke="#231f20" stroke-width="9.411" stroke-opacity="1" stroke-miterlimit="4"/><path fill="#956a55" d="M 566.765625 274.550781 C 565.824219 273.609375 544.121094 272.554688 528.804688 280.882812 C 513.484375 289.210938 488.84375 353.835938 488.84375 353.835938 C 488.84375 353.835938 513.152344 346.175781 528.136719 334.515625 C 543.121094 322.855469 567.429688 275.21875 566.765625 274.550781 " fill-opacity="1" fill-rule="nonzero"/><path fill="#b51f57" d="M 526.785156 290.296875 C 544.957031 282.777344 628.949219 268.984375 643.359375 264.589844 C 657.777344 260.203125 694.757812 279.644531 687.863281 293.4375 C 680.96875 307.230469 616.414062 413.195312 612.644531 418.835938 L 481.652344 464.609375 C 481.652344 464.609375 492.308594 439.527344 510.484375 413.195312 C 528.664062 386.863281 558.121094 329.175781 560.625 320.394531 C 563.132812 311.617188 526.785156 290.296875 526.785156 290.296875 " fill-opacity="1" fill-rule="nonzero"/><path fill="#9f2240" d="M 574.199219 321.96875 C 570.203125 333.964844 559.105469 342.84375 555.109375 361.496094 C 551.113281 372.15625 563.101562 377.488281 571.09375 372.15625 C 600.398438 346.839844 609.722656 301.535156 651.011719 296.207031 C 644.355469 296.207031 633.699219 301.535156 631.035156 297.539062 C 624.421875 290.1875 618.613281 278.378906 610.929688 271.503906 C 582.703125 277.007812 545.089844 284.113281 529.996094 289.121094 C 554.808594 283.847656 583.628906 293.679688 574.199219 321.96875 " fill-opacity="1" fill-rule="nonzero"/><path fill="#e82863" d="M 569.714844 316.949219 C 569.714844 316.949219 675.957031 288.628906 679.714844 289.257812 C 683.476562 289.882812 635.210938 371.183594 635.210938 371.183594 C 635.210938 371.183594 686.191406 295.523438 685.5625 289.257812 C 684.9375 282.984375 670.3125 268.984375 650.253906 266.472656 C 650.253906 266.472656 678.042969 276.921875 676.789062 286.332031 L 569.714844 316.949219 " fill-opacity="1" fill-rule="nonzero"/><g clip-path="url(#51eda7877b)"><path fill="#ac816d" d="M 793.535156 106.992188 C 772.171875 93.101562 748.234375 91.210938 723.789062 91.003906 C 717.414062 97.085938 628.515625 181.878906 599.511719 209.074219 C 569.429688 237.289062 547.699219 251.082031 526.804688 263.628906 C 509.941406 273.75 494.21875 286.195312 492.964844 289.960938 C 491.710938 293.722656 489.203125 316.921875 485.441406 334.476562 C 481.679688 352.035156 473.53125 371.46875 474.160156 373.980469 C 474.785156 376.488281 481.054688 375.234375 494.21875 355.167969 C 507.378906 335.101562 516.15625 309.082031 524.300781 295.914062 C 532.445312 282.75 552.425781 280.035156 562.535156 285.570312 C 580.085938 295.183594 583.429688 320.054688 580.292969 323.816406 C 577.160156 327.582031 565.042969 340.328125 561.28125 351.613281 C 557.519531 362.902344 560.652344 374.1875 565.667969 372.308594 C 570.683594 370.425781 572.5625 362.902344 581.339844 352.867188 C 590.113281 342.835938 611.632812 322.773438 620.410156 304.589844 C 629.179688 286.40625 622.703125 272.402344 640.882812 244.816406 C 656.347656 221.339844 774.75 146.632812 809.71875 124.875 C 805.773438 117.960938 801.027344 111.605469 793.535156 106.992188 " fill-opacity="1" fill-rule="nonzero"/></g><path fill="#b28b79" d="M 572.425781 268.222656 C 584.414062 270.886719 591.074219 281.546875 600.398438 292.207031 C 604.394531 298.871094 612.386719 290.875 613.71875 285.546875 C 622.761719 254.386719 616.652344 220.203125 621.105469 188.695312 C 612.4375 196.902344 604.929688 203.992188 599.511719 209.074219 C 569.429688 237.289062 547.699219 251.082031 526.804688 263.628906 C 509.941406 273.75 494.21875 286.195312 492.964844 289.960938 C 491.710938 293.722656 489.203125 316.921875 485.441406 334.476562 C 483.941406 341.464844 481.757812 348.738281 479.703125 355.136719 C 492.296875 339.59375 498.402344 319.515625 504.496094 300.203125 C 513.820312 273.554688 544.453125 260.226562 572.425781 268.222656 " fill-opacity="1" fill-rule="nonzero"/><path fill="#b28b79" d="M 666.996094 165.621094 C 697.589844 135.023438 730.449219 114.542969 768.632812 95.917969 C 754.226562 91.929688 739.105469 91.132812 723.789062 91.003906 C 719.070312 95.511719 669.058594 143.210938 631.65625 178.691406 C 644.433594 180.292969 658.351562 174.277344 666.996094 165.621094 " fill-opacity="1" fill-rule="nonzero"/><path fill="#a07561" d="M 564.433594 366.828125 C 560.4375 348.171875 573.757812 332.183594 589.742188 326.851562 C 588.410156 325.519531 587.078125 324.1875 584.414062 324.1875 C 589.742188 309.53125 589.742188 292.207031 571.761719 281.546875 C 549.117188 273.554688 520.476562 272.222656 513.820312 297.539062 C 505.128906 326.109375 494.113281 353.507812 474.320312 374.363281 C 475.519531 376.285156 481.796875 374.09375 494.21875 355.167969 C 507.378906 335.101562 516.15625 309.082031 524.300781 295.914062 C 532.445312 282.75 551.664062 282.230469 561.769531 287.769531 C 579.324219 297.382812 583.429688 320.054688 580.292969 323.816406 C 577.160156 327.582031 565.042969 340.328125 561.28125 351.613281 C 557.519531 362.902344 560.652344 374.1875 565.667969 372.308594 C 566.511719 371.992188 567.257812 371.507812 567.96875 370.886719 C 566.421875 369.976562 565.167969 368.664062 564.433594 366.828125 " fill-opacity="1" fill-rule="nonzero"/><g clip-path="url(#eea48b07de)"><path fill="#a07561" d="M 798.863281 116.320312 C 756.242188 154.960938 710.953125 186.941406 653.675781 194.9375 C 644.632812 196.949219 640.140625 186.066406 634.472656 176.023438 C 628.0625 182.101562 621.96875 187.878906 616.480469 193.074219 C 619.765625 210.515625 627.878906 227.128906 631.035156 242.90625 C 632.933594 254.289062 628.078125 266.347656 627.046875 278.605469 C 628.792969 269.289062 631.667969 258.796875 640.882812 244.816406 C 656.347656 221.339844 774.75 146.632812 809.71875 124.875 C 807.511719 121.003906 805.03125 117.324219 801.980469 114.015625 C 800.941406 114.773438 799.890625 115.523438 798.863281 116.320312 " fill-opacity="1" fill-rule="nonzero"/></g><path fill="#ccced4" d="M 650.300781 236.628906 C 657.128906 230.226562 666.394531 222.925781 676.910156 215.304688 C 659.230469 205.039062 645.808594 187.671875 637.234375 168.59375 C 628.140625 178.21875 618.796875 187.921875 610.210938 196.5 C 616.933594 215.195312 632.214844 228.296875 650.300781 236.628906 " fill-opacity="1" fill-rule="nonzero"/><path fill="#eaebee" d="M 643.464844 186.726562 C 640.871094 182.632812 638.574219 178.335938 636.589844 173.925781 C 628.976562 181.976562 621.160156 190.097656 613.972656 197.273438 C 615.066406 200.296875 616.421875 203.140625 618.011719 205.816406 C 624.109375 197.101562 633.640625 191.476562 643.464844 186.726562 " fill-opacity="1" fill-rule="nonzero"/><path fill="#bfc3ca" d="M 664.699219 209.488281 C 658.96875 218.640625 648.714844 223.191406 639.410156 228.128906 C 643.105469 230.613281 647.050781 232.804688 651.167969 234.699219 C 657.085938 229.148438 665.125 222.816406 674.246094 216.203125 C 670.878906 214.253906 667.699219 211.988281 664.699219 209.488281 " fill-opacity="1" fill-rule="nonzero"/><path fill="#a02049" d="M 435.273438 437.648438 C 435.273438 437.648438 520.515625 293.4375 526.15625 290.296875 C 541.828125 281.589844 569.246094 310.492188 567.519531 319.144531 C 566.265625 325.410156 483.535156 464.609375 481.652344 464.609375 C 479.773438 464.609375 477.265625 463.355469 477.265625 460.222656 C 477.265625 457.082031 442.796875 438.902344 442.796875 438.902344 C 442.796875 438.902344 435.273438 442.035156 435.273438 437.648438 " fill-opacity="1" fill-rule="nonzero"/><path fill="#f9eacc" d="M 529.917969 299.078125 C 523.714844 305.84375 455.195312 417.03125 441.4375 439.375 C 442.238281 439.128906 442.796875 438.902344 442.796875 438.902344 C 442.796875 438.902344 450.804688 444.527344 459.871094 449.773438 C 467.125 453.976562 475.632812 457.722656 477 459.636719 C 489.929688 438.199219 554.859375 330.304688 559.371094 317.890625 C 560.808594 313.933594 532.941406 295.773438 529.917969 299.078125 " fill-opacity="1" fill-rule="nonzero"/><path fill="#e4d1b6" d="M 529.917969 299.078125 C 523.714844 305.84375 455.195312 417.03125 441.4375 439.375 C 442.238281 439.128906 442.796875 438.902344 442.796875 438.902344 C 442.796875 438.902344 442.828125 438.921875 442.867188 438.953125 C 447.082031 434.140625 450.488281 428.652344 453.878906 424.125 C 460.539062 416.128906 463.203125 406.800781 468.53125 400.140625 C 487.179688 370.824219 507.160156 346.839844 523.140625 317.527344 C 521.808594 333.515625 508.492188 345.507812 505.828125 361.496094 C 513.820312 346.839844 520.476562 332.183594 531.132812 318.859375 C 528.46875 333.515625 521.808594 346.839844 515.152344 360.164062 C 521.808594 349.503906 532.464844 340.175781 539.125 329.519531 C 536.460938 344.175781 528.46875 354.835938 521.808594 368.160156 C 525.804688 366.828125 525.804688 361.496094 529.800781 360.164062 C 512.835938 393.054688 494.171875 425.929688 475.175781 458.144531 C 476.054688 458.71875 476.703125 459.226562 477 459.636719 C 489.929688 438.199219 554.859375 330.304688 559.371094 317.890625 C 560.808594 313.933594 532.941406 295.773438 529.917969 299.078125 " fill-opacity="1" fill-rule="nonzero"/><path fill="#b2a489" d="M 546.835938 307.855469 C 546.785156 307.824219 528.320312 336.773438 505.9375 372.730469 C 483.546875 408.6875 465.722656 438.03125 465.773438 438.0625 C 465.847656 438.109375 484.289062 409.148438 506.679688 373.191406 C 529.0625 337.238281 546.90625 307.894531 546.835938 307.855469 " fill-opacity="1" fill-rule="nonzero"/><path fill="#b2a489" d="M 539.320312 303.464844 C 539.265625 303.433594 520.796875 332.238281 498.414062 368.023438 C 476.027344 403.808594 458.199219 433.015625 458.253906 433.050781 C 458.324219 433.09375 476.773438 404.277344 499.15625 368.492188 C 521.546875 332.707031 539.382812 303.507812 539.320312 303.464844 " fill-opacity="1" fill-rule="nonzero"/><path fill="#b2a489" d="M 554.984375 314.757812 C 554.933594 314.71875 536.507812 344 514.183594 380.359375 C 491.863281 416.71875 474.078125 446.390625 474.128906 446.421875 C 474.203125 446.46875 492.605469 417.179688 514.933594 380.820312 C 537.257812 344.457031 555.054688 314.792969 554.984375 314.757812 " fill-opacity="1" fill-rule="nonzero"/><path fill="#6d6dae" d="M 667.75 220.050781 C 669.171875 222.089844 667.074219 226 663.070312 228.78125 C 659.066406 231.558594 654.671875 232.164062 653.257812 230.121094 C 651.839844 228.082031 653.9375 224.171875 657.9375 221.394531 C 661.945312 218.609375 666.335938 218.011719 667.75 220.050781 " fill-opacity="1" fill-rule="nonzero"/><path fill="#6d6dae" d="M 655.679688 210.503906 C 657.253906 212.425781 655.46875 216.484375 651.695312 219.570312 C 647.921875 222.660156 643.589844 223.601562 642.015625 221.679688 C 640.445312 219.753906 642.230469 215.695312 646.003906 212.613281 C 649.773438 209.527344 654.109375 208.585938 655.679688 210.503906 " fill-opacity="1" fill-rule="nonzero"/><path fill="#6d6dae" d="M 645.773438 202.0625 C 647.195312 204.101562 645.097656 208.011719 641.089844 210.792969 C 637.089844 213.570312 632.695312 214.175781 631.277344 212.132812 C 629.863281 210.09375 631.960938 206.183594 635.960938 203.40625 C 639.96875 200.621094 644.359375 200.023438 645.773438 202.0625 " fill-opacity="1" fill-rule="nonzero"/><path fill="#6d6dae" d="M 636.78125 190.734375 C 638.203125 192.777344 636.105469 196.683594 632.101562 199.464844 C 628.097656 202.246094 623.703125 202.847656 622.289062 200.808594 C 620.871094 198.765625 622.96875 194.859375 626.96875 192.078125 C 630.976562 189.292969 635.367188 188.695312 636.78125 190.734375 " fill-opacity="1" fill-rule="nonzero"/><path fill="#6d6dae" d="M 630.789062 179.410156 C 632.210938 181.449219 630.113281 185.359375 626.105469 188.140625 C 622.105469 190.917969 617.707031 191.523438 616.292969 189.480469 C 614.878906 187.441406 616.976562 183.53125 620.976562 180.753906 C 624.984375 177.96875 629.375 177.371094 630.789062 179.410156 " fill-opacity="1" fill-rule="nonzero"/></svg>